<mxfile host="app.diagrams.net" modified="2023-09-17T14:38:42.291Z" agent="Mozilla/5.0 (Macintosh; Intel Mac OS X 10_15_7) AppleWebKit/537.36 (KHTML, like Gecko) Chrome/116.0.0.0 Safari/537.36" version="21.7.5" etag="gz3jDTcjiLCGW_3qFvy3" type="github">
  <diagram name="Page-1" id="oAmhN_7rQ39crHYFq2ip">
    <mxGraphModel>
      <root>
        <mxCell id="0" />
        <mxCell id="1" parent="0" />
      </root>
    </mxGraphModel>
  </diagram>
</mxfile>
